<?xml version="1.0" encoding="iso-8859-1"?>
<!-- Generator: Adobe Illustrator 21.0.0, SVG Export Plug-In . SVG Version: 6.00 Build 0)  -->
<svg version="1.2" baseProfile="tiny" id="&#x421;&#x43B;&#x43E;&#x439;_1"
	 xmlns="http://www.w3.org/2000/svg" xmlns:xlink="http://www.w3.org/1999/xlink" x="0px" y="0px" viewBox="0 0 442 378"
	 xml:space="preserve">
<g>
	<path fill="#C13344" d="M105.184,121.898c-7.309,7.164-8.891,21.711-4.575,42.168c0.184,0.867,0.426,2.461,0.618,4.539
		c14.847-3.41,36.074-6.16,65.968-6.16l1.239,0.004l1.195-0.004c1,0,1.984,0.004,2.965,0.012l0.824-2.438l-42.477,0.36
		l-3.843-19.942l51.218,2.813l-0.828,10.785c6.125-4.426,29.992-17.711,95.735-17.711l1.238,0.004l1.195-0.004
		c35.465,0,58.739,3.867,73.621,8.125c0.075-10.301-2.254-17.949-6.945-22.555l2.285-4.375l23.551-2.351V93.464
		c-0.109-0.003-0.215-0.011-0.328-0.011h-22.176l-13.047,13.535l-14.945-44.543l-0.129-0.324c0,0-18.762-17.121-92.566-17.121
		c-0.411,0-0.813,0.004-1.219,0.004c-0.41,0-0.809-0.004-1.219-0.004c-73.805,0-92.566,17.121-92.566,17.121l-0.129,0.324
		l-14.946,44.543l-13.043-13.535H79.676c-0.114,0-0.219,0.008-0.328,0.011v21.704l23.55,2.351L105.184,121.898z M142.992,69.211
		c2.004-1.219,7.051-3.52,18.676-5.59c14.91-2.657,35.391-4.004,60.871-4.004c0.41,0,0.813,0,1.219,0.004
		c0.406-0.004,0.808-0.004,1.219-0.004c25.48,0,45.961,1.347,60.871,4.004c11.625,2.07,16.672,4.371,18.675,5.59l15.813,47.113
		H127.18L142.992,69.211z M142.992,69.211"/>
	<g>
		<path fill="#C13344" d="M289.273,241.964l23.547-2.355V217.91c-0.109-0.004-0.215-0.012-0.328-0.012h-22.176l-13.046,13.531
			l-14.946-44.539l-0.129-0.328c0,0-18.761-17.117-92.566-17.117c-0.41,0-0.813,0-1.219,0.004c-0.406,0-0.808-0.004-1.219-0.004
			c-73.804,0-92.566,17.117-92.566,17.117l-0.129,0.328l-14.945,44.539l-13.047-13.531H24.328c-0.113,0-0.219,0.008-0.328,0.012
			v21.699l23.551,2.355l2.285,4.375c-7.305,7.168-8.891,21.711-4.574,42.168c0.336,1.586,0.867,5.59,0.926,10.547v46.809
			c0,0.637,0.515,1.152,1.148,1.152H84.02c0.636,0,1.152-0.515,1.152-1.152l0.004-37.477h166.469l0.007,37.477
			c0,0.637,0.512,1.152,1.149,1.152h36.683c0.637,0,1.149-0.515,1.149-1.152v-46.809c0.062-4.957,0.594-8.961,0.929-10.547
			c4.313-20.457,2.731-35-4.574-42.168L289.273,241.964z M121.688,284.429l-46.094,0.391l-3.84-19.941l51.215,2.816L121.688,284.429
			z M71.836,240.765l15.809-47.109c2.007-1.223,7.054-3.52,18.675-5.594c14.914-2.656,35.395-4.004,60.875-4.004
			c0.41,0,0.809,0.004,1.215,0.004s0.809-0.004,1.219-0.004c25.48,0,45.961,1.348,60.871,4.004
			c11.625,2.074,16.672,4.371,18.68,5.594l15.808,47.109H71.836z M261.227,284.82l-46.09-0.391l-1.285-16.734l51.218-2.816
			L261.227,284.82z M261.227,284.82"/>
		<path fill="#C13344" d="M418.848,213.492v-21.703c-0.11-0.004-0.215-0.012-0.328-0.012h-22.176l-13.047,13.531l-14.945-44.539
			l-0.129-0.324c0,0-18.762-17.121-92.567-17.121c-0.41,0-0.812,0.004-1.218,0.004c-0.407,0-0.805-0.004-1.215-0.004
			c-73.809,0-92.571,17.121-92.571,17.121l-0.125,0.324l-0.601,1.789c8.711,0.196,16.597,0.637,23.738,1.254
			c2.383-0.617,5.238-1.254,8.684-1.867c14.914-2.656,35.394-4.004,60.875-4.004c0.41,0,0.808,0,1.215,0c0.406,0,0.808,0,1.218,0
			c25.481,0,45.961,1.348,60.871,4.004c11.625,2.07,16.672,4.367,18.68,5.59l15.809,47.109h-51.211l0.015,3.266l-0.129,23.664
			l51.407-2.813l-3.844,19.942l-46.09-0.395l-0.957-12.488l-23.324,2.418c4.137,8.156,5.105,19.551,2.914,34.031h57.875
			l0.004,37.477c0,0.633,0.515,1.148,1.152,1.148h36.684c0.636,0,1.148-0.515,1.148-1.148v-46.809
			c0.063-4.961,0.594-8.965,0.93-10.547c4.316-20.457,2.73-35.004-4.578-42.168l2.289-4.379L418.848,213.492z M418.848,213.492"/>
	</g>
</g>
</svg>
