<?xml version="1.0" encoding="iso-8859-1"?>
<!-- Generator: Adobe Illustrator 21.0.0, SVG Export Plug-In . SVG Version: 6.00 Build 0)  -->
<svg version="1.2" baseProfile="tiny" id="&#x421;&#x43B;&#x43E;&#x439;_1"
	 xmlns="http://www.w3.org/2000/svg" xmlns:xlink="http://www.w3.org/1999/xlink" x="0px" y="0px" viewBox="0 0 62.5 45"
	 xml:space="preserve">
<g>
	<path fill="#9F2841" d="M43.866,34.916h-0.138c-0.007,0-0.013-0.001-0.02-0.001c-0.01,0-0.021,0.001-0.032,0.001h-2.863v2.253
		h3.053c0.58,0,1.071-0.516,1.071-1.127C44.937,35.431,44.446,34.916,43.866,34.916L43.866,34.916z M43.866,34.916"/>
	<g>
		<path fill="none" d="M28.497,31.004l-9.154-3.153c-0.404-0.14-0.853-0.038-1.158,0.263c-0.305,0.3-0.413,0.747-0.279,1.154
			l3.047,9.26c0.155,0.474,0.596,0.775,1.07,0.775c0.116,0,0.235-0.018,0.352-0.056c0.591-0.195,0.912-0.831,0.718-1.423
			l-0.558-1.695l3.567-3.567l1.661,0.572c0.589,0.202,1.229-0.11,1.432-0.699C29.398,31.848,29.085,31.207,28.497,31.004z"/>
		<path fill="none" d="M38.561,29.528v8.731c0,0.622,0.551,1.163,1.173,1.163h4.132c1.833,0,3.324-1.531,3.324-3.393
			c0-1.174-0.592-2.224-1.488-2.83c0.207-0.44,0.318-0.912,0.318-1.41c0-1.858-1.491-3.351-3.324-3.351h-2.964
			C39.112,28.438,38.561,28.906,38.561,29.528z M40.813,30.691h1.884c0.58,0,1.071,0.511,1.071,1.115
			c0,0.402-0.212,0.715-0.405,0.856h-2.549V30.691z"/>
		<path fill="none" d="M35.691,20.134c1.801,0,3.506-0.784,4.678-2.152c0.405-0.472,0.351-1.184-0.122-1.588
			c-0.472-0.406-1.183-0.351-1.588,0.122c-0.745,0.868-1.826,1.366-2.968,1.366c-2.156,0-3.909-1.753-3.909-3.908
			c0-2.156,1.753-3.909,3.909-3.909c1.033,0,2.008,0.4,2.744,1.125c0.443,0.437,1.156,0.432,1.593-0.011
			c0.437-0.443,0.432-1.157-0.011-1.593c-1.161-1.144-2.697-1.775-4.326-1.775c-3.397,0-6.161,2.764-6.162,6.162
			C29.529,17.37,32.293,20.134,35.691,20.134z"/>
		<path fill="none" d="M33.35,31.065v-1.92c0-2.662,2.213-4.79,4.874-4.79h-8.59c-0.988,0-1.92-0.318-2.686-0.829l5.114,5.107
			C32.753,29.324,33.209,30.174,33.35,31.065z"/>
		<path fill="#9F2841" d="M43.768,31.806c0-0.604-0.49-1.115-1.071-1.115h-1.884v1.971h2.549
			C43.555,32.522,43.768,32.209,43.768,31.806z"/>
		<path fill="#9F2841" d="M24.76,8.586v10.905c0,0.988,0.323,1.907,0.834,2.673l-0.193-0.205c-0.909-0.909-2.115-1.41-3.408-1.41
			c-1.292,0-2.501,0.501-3.41,1.41l-6.672,6.674c-0.94,0.94-1.411,2.176-1.411,3.411v0.004c0.001,1.235,0.471,2.471,1.412,3.411
			l6.674,6.674c0.909,0.908,2.121,1.409,3.413,1.409c1.293,0,2.505-0.501,3.414-1.409l6.65-6.674c0.691-0.69,1.146-1.54,1.287-2.433
			v5.615c0,2.662,2.213,4.864,4.874,4.864h9.497c2.662,0,4.781-2.202,4.781-4.864v-9.497c0-2.662-2.118-4.79-4.78-4.79H40.54
			c2.662,0,4.78-2.202,4.78-4.864V8.586c0-2.662-2.118-4.79-4.78-4.79H29.635C26.973,3.795,24.76,5.924,24.76,8.586z M29.195,32.436
			c-0.203,0.589-0.844,0.901-1.432,0.699l-1.661-0.572l-3.567,3.567l0.558,1.695c0.195,0.591-0.127,1.228-0.718,1.423
			c-0.117,0.038-0.236,0.056-0.352,0.056c-0.474,0-0.914-0.3-1.07-0.775l-3.047-9.26c-0.133-0.407-0.025-0.854,0.279-1.154
			c0.305-0.3,0.754-0.402,1.158-0.263l9.154,3.153C29.085,31.207,29.398,31.848,29.195,32.436z M42.697,28.438
			c1.833,0,3.324,1.493,3.324,3.351c0,0.498-0.111,0.97-0.318,1.41c0.896,0.606,1.488,1.656,1.488,2.83
			c-0.001,1.863-1.491,3.393-3.324,3.393h-4.132c-0.622,0-1.173-0.542-1.173-1.163v-8.731c0-0.622,0.551-1.09,1.173-1.09H42.697z
			 M35.691,7.81c1.63,0,3.166,0.63,4.326,1.775c0.443,0.437,0.448,1.15,0.011,1.593c-0.437,0.443-1.15,0.448-1.593,0.011
			c-0.736-0.725-1.711-1.125-2.744-1.125c-2.156,0-3.909,1.753-3.909,3.909c0,2.155,1.753,3.908,3.909,3.908
			c1.142,0,2.224-0.498,2.968-1.366c0.405-0.472,1.116-0.527,1.588-0.122c0.472,0.404,0.527,1.116,0.122,1.588
			c-1.172,1.368-2.877,2.152-4.678,2.152c-3.398,0-6.162-2.764-6.162-6.161C29.53,10.574,32.294,7.81,35.691,7.81z M29.635,24.354
			h8.59c-2.662,0-4.874,2.129-4.874,4.79v1.92c-0.141-0.892-0.597-1.742-1.287-2.433l-5.114-5.107
			C27.715,24.037,28.647,24.354,29.635,24.354z"/>
	</g>
	<path fill="#9F2841" d="M21.746,33.731l1.986-1.985l-2.976-1.026L21.746,33.731z M21.746,33.731"/>
</g>
</svg>
