<?xml version="1.0" encoding="iso-8859-1"?>
<!-- Generator: Adobe Illustrator 21.0.0, SVG Export Plug-In . SVG Version: 6.00 Build 0)  -->
<svg version="1.2" baseProfile="tiny" id="&#x421;&#x43B;&#x43E;&#x439;_1"
	 xmlns="http://www.w3.org/2000/svg" xmlns:xlink="http://www.w3.org/1999/xlink" x="0px" y="0px" viewBox="0 0 62.5 45"
	 xml:space="preserve">
<g>
	<path fill="#9F2841" d="M41.519,3.772c-1.045,1.89-2.041,3.692-3.053,5.525c1.419,0.192,2.786,0.377,4.207,0.57
		C42.29,7.845,41.912,5.848,41.519,3.772z"/>
	<path fill="#9F2841" d="M50.31,25.18c2.041-0.492,4.041-0.973,6.121-1.474c-1.892-0.929-3.715-1.824-5.553-2.726
		C50.687,22.395,50.501,23.768,50.31,25.18z"/>
	<path fill="#9F2841" d="M33.502,10.538c-1.671-1.137-3.335-2.27-5.084-3.461c0.598,2.079,1.166,4.052,1.729,6.008
		C31.269,12.234,32.369,11.399,33.502,10.538z"/>
	<path fill="#9F2841" d="M53.052,10.623c-2.02,0.691-3.92,1.341-5.808,1.988c0.855,1.111,1.696,2.205,2.562,3.33
		C50.86,14.214,51.927,12.466,53.052,10.623z"/>
	<path fill="#9F2841" d="M23.207,18.637c-0.584,0.111-1.163,0.22-1.758,0.333c0.254,0.14,0.499,0.276,0.75,0.415
		C22.521,19.116,22.855,18.865,23.207,18.637z"/>
	<path fill="#9F2841" d="M40.166,12.46c-3.896-0.519-7.518,1.481-9.257,4.749c5.242,1.095,8.825,6.064,8.095,11.453
		c-0.092,0.678-0.251,1.331-0.464,1.955c4.683,0.219,8.813-3.149,9.458-7.882C48.681,17.724,45.178,13.128,40.166,12.46z"/>
	<path fill="#9F2841" d="M44.455,31.889c1.754,1.071,3.5,2.138,5.246,3.205c0.022-0.018,0.044-0.036,0.066-0.053
		c-0.651-1.905-1.303-3.811-1.951-5.707C46.682,30.196,45.581,31.033,44.455,31.889z"/>
	<path fill="#9F2841" d="M35.832,34.802c0.315,1.308,0.629,2.617,0.951,3.954c0.926-1.886,1.821-3.709,2.732-5.563
		c-0.708-0.096-1.405-0.19-2.102-0.285C36.958,33.603,36.431,34.242,35.832,34.802z"/>
</g>
<g>
	<path fill="#9F2841" d="M32.919,34.445h-0.098c-0.005,0-0.009-0.001-0.014-0.001c-0.007,0-0.015,0.001-0.023,0.001h-2.026v1.594
		h2.161c0.41,0,0.758-0.365,0.758-0.798S33.33,34.445,32.919,34.445L32.919,34.445z"/>
	<g>
		<path fill="none" d="M22.043,31.677l-6.478-2.231c-0.286-0.099-0.604-0.027-0.819,0.186c-0.216,0.212-0.292,0.529-0.197,0.817
			l2.156,6.553c0.11,0.335,0.422,0.548,0.757,0.548c0.082,0,0.166-0.013,0.249-0.04c0.418-0.138,0.645-0.588,0.508-1.007l-0.395-1.2
			l2.524-2.524l1.175,0.405c0.417,0.143,0.87-0.078,1.013-0.495C22.681,32.274,22.459,31.821,22.043,31.677z"/>
		<path fill="none" d="M29.165,30.632v6.179c0,0.44,0.39,0.823,0.83,0.823h2.924c1.297,0,2.352-1.083,2.352-2.401
			c0-0.831-0.419-1.574-1.053-2.003c0.146-0.311,0.225-0.645,0.225-0.998c0-1.315-1.055-2.371-2.352-2.371h-2.098
			C29.555,29.861,29.165,30.192,29.165,30.632z M30.759,31.456h1.333c0.41,0,0.758,0.362,0.758,0.789
			c0,0.284-0.15,0.506-0.287,0.606H30.76L30.759,31.456L30.759,31.456z"/>
		<path fill="none" d="M27.134,23.985c1.275,0,2.481-0.555,3.311-1.523c0.287-0.334,0.248-0.838-0.086-1.124
			c-0.334-0.287-0.837-0.248-1.124,0.086c-0.527,0.614-1.292,0.967-2.1,0.967c-1.526,0-2.766-1.241-2.766-2.766
			c0-1.526,1.241-2.766,2.766-2.766c0.731,0,1.421,0.283,1.942,0.796c0.314,0.309,0.818,0.306,1.127-0.008s0.306-0.819-0.008-1.127
			c-0.822-0.81-1.909-1.256-3.061-1.256c-2.404,0-4.36,1.956-4.361,4.361C22.773,22.029,24.729,23.985,27.134,23.985z"/>
		<path fill="none" d="M25.478,31.72v-1.359c0-1.884,1.566-3.39,3.449-3.39h-6.079c-0.699,0-1.359-0.225-1.901-0.587l3.619,3.614
			C25.055,30.488,25.378,31.09,25.478,31.72z"/>
		<path fill="#9F2841" d="M32.85,32.245c0-0.427-0.347-0.789-0.758-0.789h-1.333v1.395h1.804
			C32.699,32.751,32.85,32.53,32.85,32.245z"/>
		<path fill="#9F2841" d="M19.399,15.812v7.717c0,0.699,0.229,1.35,0.59,1.892l-0.137-0.145c-0.643-0.643-1.497-0.998-2.412-0.998
			c-0.914,0-1.77,0.355-2.413,0.998l-4.722,4.723c-0.665,0.665-0.999,1.54-0.999,2.414v0.003c0.001,0.874,0.333,1.749,0.999,2.414
			l4.723,4.723c0.643,0.643,1.501,0.997,2.415,0.997c0.915,0,1.773-0.355,2.416-0.997l4.706-4.723
			c0.489-0.488,0.811-1.09,0.911-1.722v3.974c0,1.884,1.566,3.442,3.449,3.442h6.721c1.884,0,3.383-1.558,3.383-3.442v-6.721
			c0-1.884-1.499-3.39-3.383-3.39h-5.083c1.884,0,3.383-1.558,3.383-3.442v-7.717c0-1.884-1.499-3.39-3.383-3.39h-7.717
			C20.965,12.422,19.399,13.928,19.399,15.812z M22.537,32.69c-0.144,0.417-0.597,0.638-1.013,0.495l-1.175-0.405l-2.524,2.524
			l0.395,1.2c0.138,0.418-0.09,0.869-0.508,1.007c-0.083,0.027-0.167,0.04-0.249,0.04c-0.335,0-0.647-0.212-0.757-0.548
			l-2.156-6.553c-0.094-0.288-0.018-0.604,0.197-0.817c0.216-0.212,0.534-0.284,0.819-0.186l6.478,2.231
			C22.459,31.821,22.681,32.274,22.537,32.69z M32.092,29.861c1.297,0,2.352,1.057,2.352,2.371c0,0.352-0.079,0.686-0.225,0.998
			c0.634,0.429,1.053,1.172,1.053,2.003c-0.001,1.318-1.055,2.401-2.352,2.401h-2.924c-0.44,0-0.83-0.384-0.83-0.823v-6.179
			c0-0.44,0.39-0.771,0.83-0.771C29.996,29.861,32.092,29.861,32.092,29.861z M27.134,15.263c1.154,0,2.241,0.446,3.061,1.256
			c0.314,0.309,0.317,0.814,0.008,1.127c-0.309,0.314-0.814,0.317-1.127,0.008c-0.521-0.513-1.211-0.796-1.942-0.796
			c-1.526,0-2.766,1.241-2.766,2.766c0,1.525,1.241,2.766,2.766,2.766c0.808,0,1.574-0.352,2.1-0.967
			c0.287-0.334,0.79-0.373,1.124-0.086c0.334,0.286,0.373,0.79,0.086,1.124c-0.829,0.968-2.036,1.523-3.311,1.523
			c-2.405,0-4.361-1.956-4.361-4.36C22.774,17.219,24.73,15.263,27.134,15.263z M22.848,26.971h6.079
			c-1.884,0-3.449,1.507-3.449,3.39v1.359c-0.1-0.631-0.422-1.233-0.911-1.722l-3.619-3.614
			C21.49,26.747,22.149,26.971,22.848,26.971z"/>
	</g>
	<path fill="#9F2841" d="M17.266,33.607l1.405-1.405l-2.106-0.726L17.266,33.607z"/>
</g>
</svg>
