<?xml version="1.0" encoding="iso-8859-1"?>
<!-- Generator: Adobe Illustrator 21.0.0, SVG Export Plug-In . SVG Version: 6.00 Build 0)  -->
<svg version="1.2" baseProfile="tiny" id="&#x421;&#x43B;&#x43E;&#x439;_1"
	 xmlns="http://www.w3.org/2000/svg" xmlns:xlink="http://www.w3.org/1999/xlink" x="0px" y="0px" viewBox="0 0 62.5 45"
	 xml:space="preserve">
<path fill="#9F2841" d="M55.292,19.484L45,11.559V3.3c0-1.013-0.819-1.832-1.832-1.832c-1.009,0-1.832,0.819-1.832,1.832v5.438
	l-8.945-6.89c-0.658-0.507-1.576-0.507-2.237,0L7.251,19.484c-0.802,0.619-0.95,1.769-0.334,2.571
	c0.615,0.802,1.769,0.95,2.571,0.33l2.013-1.547V41.7c0,1.013,0.819,1.832,1.832,1.832h35.652c1.009,0,1.832-0.819,1.832-1.832
	V20.662l2.237,1.723c0.334,0.261,0.728,0.384,1.118,0.384c0.549,0,1.094-0.246,1.453-0.714
	C56.245,21.253,56.093,20.103,55.292,19.484L55.292,19.484z M27.501,19.853c1.238,0,2.241,1.006,2.241,2.24
	c0,1.235-1.003,2.241-2.241,2.241c-1.235,0-2.24-1.007-2.24-2.241C25.26,20.859,26.266,19.853,27.501,19.853L27.501,19.853z
	 M21.802,24.106c1.235,0,2.238,1.002,2.238,2.237c0,1.238-1.003,2.24-2.238,2.24c-1.238,0-2.24-1.006-2.24-2.24
	C19.562,25.108,20.564,24.106,21.802,24.106L21.802,24.106z M23.847,33.374h-0.267l0.292,1.167c0.021,0.092,0,0.187-0.056,0.261
	c-0.06,0.074-0.149,0.119-0.243,0.119h-0.461l-0.158,1.967c-0.014,0.162-0.144,0.285-0.305,0.285h-1.696
	c-0.158,0-0.288-0.122-0.303-0.285l-0.159-1.967h-0.465c-0.091,0-0.183-0.045-0.239-0.119c-0.057-0.074-0.077-0.169-0.057-0.261
	l0.293-1.167h-0.264c-0.085,0-0.166-0.035-0.222-0.099c-0.06-0.063-0.088-0.148-0.081-0.232l0.306-3.798
	c0.013-0.158,0.144-0.282,0.302-0.282h3.472c0.158,0,0.292,0.123,0.306,0.282l0.299,3.739c0.007,0.028,0.01,0.057,0.01,0.085
	C24.152,33.237,24.026,33.371,23.847,33.374L23.847,33.374z M30.163,31.155c-0.056,0.059-0.137,0.095-0.221,0.095h-0.52l0.408,1.692
	c0.018,0.039,0.028,0.081,0.028,0.131c0,0.168-0.137,0.303-0.309,0.306h-0.503l-0.214,3.51c-0.011,0.162-0.14,0.285-0.306,0.285
	h-2.005c-0.161,0-0.295-0.126-0.305-0.285l-0.215-3.51H25.5c-0.095,0-0.184-0.046-0.24-0.12c-0.059-0.07-0.077-0.166-0.057-0.257
	l0.422-1.749h-0.524c-0.081,0-0.161-0.035-0.222-0.098c-0.056-0.06-0.088-0.14-0.081-0.225l0.363-5.927
	c0.006-0.158,0.14-0.285,0.303-0.285h4.115c0.162,0,0.292,0.127,0.303,0.285l0.362,5.927C30.251,31.011,30.223,31.091,30.163,31.155
	L30.163,31.155z M40.743,23.951c1.235,0,2.238,1.006,2.238,2.24c0,1.235-1.003,2.237-2.238,2.237c-1.238,0-2.24-1.002-2.24-2.237
	C38.503,24.957,39.505,23.951,40.743,23.951L40.743,23.951z M35.042,19.853c1.238,0,2.241,1.006,2.241,2.24
	c0,1.235-1.007,2.241-2.241,2.241s-2.237-1.007-2.237-2.241C32.801,20.859,33.804,19.853,35.042,19.853L35.042,19.853z
	 M37.684,31.155c-0.06,0.059-0.137,0.095-0.225,0.095h-0.764l-0.345,5.635c-0.01,0.162-0.144,0.288-0.305,0.288H34.04
	c-0.166,0-0.295-0.126-0.306-0.288l-0.345-5.635h-0.766c-0.085,0-0.166-0.035-0.225-0.095c-0.057-0.064-0.085-0.144-0.081-0.229
	l0.362-5.923c0.011-0.162,0.144-0.285,0.306-0.285h4.112c0.161,0,0.295,0.127,0.305,0.285l0.363,5.923
	C37.772,31.011,37.739,31.091,37.684,31.155L37.684,31.155z M43.009,33.275c-0.059,0.064-0.14,0.099-0.225,0.099h-0.609
	l-0.281,3.517c-0.014,0.158-0.145,0.281-0.306,0.281h-1.696c-0.162,0-0.292-0.122-0.303-0.281l-0.285-3.517h-0.609
	c-0.085,0-0.166-0.035-0.225-0.099c-0.057-0.063-0.088-0.148-0.081-0.232l0.306-3.798c0.013-0.158,0.148-0.282,0.306-0.282h3.471
	c0.159,0,0.288,0.123,0.303,0.282l0.306,3.798C43.094,33.128,43.065,33.212,43.009,33.275L43.009,33.275z M43.009,33.275"/>
</svg>
