<?xml version="1.0" encoding="iso-8859-1"?>
<!-- Generator: Adobe Illustrator 21.0.0, SVG Export Plug-In . SVG Version: 6.00 Build 0)  -->
<svg version="1.2" baseProfile="tiny" id="&#x421;&#x43B;&#x43E;&#x439;_1"
	 xmlns="http://www.w3.org/2000/svg" xmlns:xlink="http://www.w3.org/1999/xlink" x="0px" y="0px" viewBox="0 0 62.5 45"
	 xml:space="preserve">
<g>
	<path fill="#9F2841" d="M38.476,33.351h4.936l-5.338,5.691v-5.29C38.075,33.531,38.255,33.351,38.476,33.351L38.476,33.351z
		 M32.519,11.256l1.522-0.196l-0.95-1.363L32.519,11.256z M46.384,3.48v27.91h-7.908c-1.303,0-2.362,1.06-2.362,2.362V42.5H16.966
		c-0.542,0-0.98-0.438-0.98-0.98V3.48c0-0.541,0.438-0.98,0.98-0.98h28.438C45.946,2.5,46.384,2.939,46.384,3.48L46.384,3.48z
		 M29.959,15.394c0.111,0.04,0.225,0.06,0.337,0.06c0.4,0,0.775-0.247,0.921-0.643l0.542-1.48l3.546-0.459l0.901,1.293
		c0.19,0.274,0.495,0.42,0.804,0.42c0.194,0,0.39-0.058,0.56-0.176c0.444-0.309,0.553-0.92,0.244-1.364l-4.191-6.015
		c-0.002-0.002-0.004-0.004-0.006-0.006c-0.027-0.038-0.06-0.073-0.092-0.107c-0.012-0.013-0.022-0.028-0.034-0.039
		c-0.026-0.025-0.057-0.045-0.085-0.066c-0.023-0.017-0.044-0.037-0.068-0.053c-0.018-0.012-0.039-0.019-0.059-0.03
		c-0.037-0.02-0.075-0.04-0.115-0.056c-0.003-0.001-0.005-0.003-0.008-0.004c-0.023-0.009-0.047-0.012-0.07-0.018
		c-0.036-0.01-0.071-0.021-0.108-0.027c-0.033-0.006-0.064-0.007-0.097-0.009c-0.031-0.002-0.061-0.005-0.093-0.005
		c-0.033,0.001-0.065,0.007-0.098,0.012c-0.031,0.004-0.061,0.007-0.091,0.013c-0.033,0.008-0.063,0.019-0.096,0.03
		c-0.028,0.01-0.057,0.018-0.085,0.031c-0.037,0.016-0.072,0.038-0.107,0.059c-0.017,0.012-0.036,0.018-0.053,0.031
		c-0.002,0.001-0.004,0.003-0.006,0.004c-0.039,0.029-0.075,0.061-0.109,0.095c-0.012,0.012-0.027,0.021-0.037,0.032
		C32.081,6.942,32.062,6.972,32.041,7c-0.018,0.024-0.039,0.046-0.055,0.071c-0.01,0.016-0.016,0.036-0.026,0.053
		c-0.022,0.04-0.044,0.08-0.059,0.123c-0.001,0.003-0.003,0.005-0.004,0.007l-2.522,6.884
		C29.189,14.645,29.451,15.208,29.959,15.394L29.959,15.394z M32.538,32.371c0-0.541-0.439-0.98-0.98-0.98h-9.931
		c-0.542,0-0.98,0.439-0.98,0.98c0,0.541,0.438,0.98,0.98,0.98h9.931C32.099,33.351,32.538,32.911,32.538,32.371L32.538,32.371z
		 M36.706,26.391c0-0.542-0.438-0.98-0.98-0.98H21.626c-0.542,0-0.98,0.438-0.98,0.98c0,0.541,0.438,0.98,0.98,0.98h14.099
		C36.267,27.371,36.706,26.932,36.706,26.391L36.706,26.391z M39.764,20.409c0-0.541-0.439-0.98-0.98-0.98H21.626
		c-0.542,0-0.98,0.439-0.98,0.98c0,0.542,0.438,0.98,0.98,0.98h17.157C39.324,21.39,39.764,20.951,39.764,20.409L39.764,20.409z
		 M43.499,8.778c-0.07-0.536-0.56-0.915-1.099-0.846l-1.31,0.17l-0.17-1.311c-0.069-0.536-0.559-0.916-1.098-0.846
		c-0.537,0.07-0.916,0.561-0.846,1.098l0.169,1.31l-1.31,0.169c-0.537,0.07-0.916,0.561-0.846,1.098
		c0.063,0.495,0.486,0.855,0.971,0.855c0.042,0,0.084-0.003,0.127-0.009l1.31-0.169l0.169,1.311
		c0.064,0.494,0.485,0.854,0.971,0.854c0.042,0,0.085-0.003,0.127-0.008c0.537-0.07,0.916-0.561,0.847-1.098l-0.17-1.31l1.31-0.17
		C43.188,9.807,43.568,9.315,43.499,8.778L43.499,8.778z M43.499,8.778"/>
</g>
</svg>
