<?xml version="1.0" encoding="iso-8859-1"?>
<!-- Generator: Adobe Illustrator 21.0.0, SVG Export Plug-In . SVG Version: 6.00 Build 0)  -->
<svg version="1.2" baseProfile="tiny" id="&#x421;&#x43B;&#x43E;&#x439;_1"
	 xmlns="http://www.w3.org/2000/svg" xmlns:xlink="http://www.w3.org/1999/xlink" x="0px" y="0px" viewBox="0 0 62.5 45"
	 xml:space="preserve">
<g id="JWTG1L.tif">
	<g>
		<path fill="#9F2841" d="M52.842,13.652c0,1.493,0,2.987,0,4.48c-0.134,0.017-0.271,0.019-0.401,0.052
			c-2.324,0.595-4.646,1.195-6.97,1.791c-0.098,0.025-0.201,0.029-0.334,0.047c0-0.237,0.001-0.429,0-0.621
			c-0.004-0.686-0.265-0.946-0.956-0.948c-0.802-0.002-1.603-0.004-2.405,0.001c-0.579,0.004-0.87,0.286-0.881,0.86
			c-0.01,0.483-0.022,0.968,0.004,1.451c0.016,0.304-0.091,0.429-0.383,0.503c-2.859,0.728-5.713,1.473-8.573,2.199
			c-0.215,0.055-0.469,0.043-0.687-0.012c-2.006-0.503-4.007-1.022-6.01-1.539c-0.863-0.223-1.723-0.452-2.595-0.681
			c0-0.663,0.004-1.284-0.001-1.904c-0.005-0.586-0.284-0.872-0.861-0.876c-0.843-0.006-1.686-0.007-2.529,0
			c-0.549,0.005-0.834,0.294-0.852,0.848c-0.008,0.26-0.001,0.52-0.001,0.793c-0.097,0-0.154,0.011-0.204-0.002
			c-2.615-0.68-5.229-1.363-7.843-2.045c0-1.383,0-2.766,0-4.148c0.029-0.091,0.071-0.18,0.087-0.273
			c0.175-1.056,0.743-1.859,1.597-2.472c0.889-0.638,1.895-0.836,2.976-0.835c11.061,0.009,22.123,0.005,33.184,0.006
			c0.207,0,0.415,0.002,0.622,0.012c1.85,0.09,3.597,1.417,3.937,3.171C52.774,13.561,52.816,13.605,52.842,13.652z"/>
		<path fill="#9F2841" d="M15.174,42.858c-0.237-0.061-0.475-0.122-0.712-0.184c-1.677-0.444-2.685-1.743-2.696-3.473
			c-0.002-0.359,0-0.717,0-1.078c0.035,0.005,0.07,0.002,0.073,0.011c0.464,1.218,1.463,1.704,2.65,1.909
			c0.392,0.068,0.796,0.091,1.195,0.091c10.613,0.005,21.226,0.009,31.839-0.008c0.653-0.001,1.324-0.109,1.954-0.283
			c0.904-0.249,1.575-0.827,1.896-1.758c0.04,0.01,0.079,0.02,0.119,0.03c-0.063,0.73-0.018,1.491-0.212,2.185
			c-0.4,1.433-1.484,2.166-2.898,2.461c-0.119,0.025-0.234,0.065-0.351,0.097C37.078,42.858,26.126,42.858,15.174,42.858z"/>
		<path fill="#9F2841" d="M39.152,2.12c0.172,0.045,0.343,0.091,0.515,0.134c1.609,0.401,2.804,1.682,2.954,3.346
			c0.097,1.078,0.018,2.172,0.018,3.283c-0.903,0-1.821,0-2.794,0c0-0.519,0.002-1.026,0-1.534
			c-0.008-1.761-1.204-2.975-2.962-2.979c-3.51-0.008-7.021-0.008-10.531,0c-1.781,0.004-2.959,1.164-3.009,2.94
			c-0.012,0.428,0.01,0.858-0.016,1.285C23.32,8.701,23.188,8.888,23.11,8.89c-0.853,0.021-1.707,0.013-2.66,0.013
			c0.056-1.267-0.031-2.5,0.195-3.674c0.324-1.688,1.479-2.688,3.181-3.022c0.078-0.015,0.15-0.058,0.225-0.088
			C29.085,2.12,34.119,2.12,39.152,2.12z"/>
		<path fill="#9F2841" d="M11.754,20.366c2.259,0.601,4.442,1.182,6.645,1.768c0,0.512-0.003,0.995,0.001,1.477
			c0.005,0.626,0.282,0.904,0.918,0.909c0.774,0.006,1.549,0.003,2.323,0.001c0.732-0.002,0.982-0.254,1.002-1
			c0.002-0.068,0.008-0.136,0.016-0.254c0.143,0.025,0.272,0.038,0.397,0.07c2.698,0.696,5.394,1.402,8.096,2.083
			c0.29,0.073,0.632,0.067,0.923-0.006c2.795-0.707,5.584-1.437,8.375-2.158c0.129-0.033,0.261-0.054,0.388-0.08
			c0.019,0.058,0.034,0.084,0.036,0.11c0.064,1.137,0.169,1.237,1.298,1.238c0.664,0,1.328,0.003,1.991-0.001
			c0.676-0.004,0.948-0.28,0.955-0.964c0.004-0.401,0.009-0.802-0.002-1.203c-0.006-0.209,0.053-0.327,0.272-0.385
			c1.961-0.516,3.92-1.042,5.879-1.563c0.038-0.01,0.081-0.001,0.158-0.001c0,0.16,0,0.31,0,0.461c0,4.439-0.037,8.878,0.016,13.316
			c0.026,2.158-1.689,3.942-3.965,3.939c-10.592-0.012-21.185-0.004-31.777-0.007c-1.913-0.001-3.458-1.176-3.864-2.947
			c-0.085-0.373-0.1-0.768-0.1-1.153c-0.007-4.383-0.004-8.767-0.003-13.15C11.732,20.717,11.744,20.57,11.754,20.366z"/>
	</g>
</g>
</svg>
