<?xml version="1.0" encoding="iso-8859-1"?>
<!-- Generator: Adobe Illustrator 21.0.0, SVG Export Plug-In . SVG Version: 6.00 Build 0)  -->
<svg version="1.2" baseProfile="tiny" id="&#x421;&#x43B;&#x43E;&#x439;_1"
	 xmlns="http://www.w3.org/2000/svg" xmlns:xlink="http://www.w3.org/1999/xlink" x="0px" y="0px" viewBox="0 0 62.5 45"
	 xml:space="preserve">
<path fill="#9F2841" d="M57.183,22.5l1.033-3.096c0.321-0.963-0.2-2.005-1.163-2.326c-0.964-0.321-2.005,0.2-2.326,1.163
	l-0.807,2.421h-3.05C49.938,10.366,41.26,2.273,30.727,2.273C19.574,2.273,10.5,11.347,10.5,22.5s9.074,20.227,20.227,20.227
	c10.533,0,19.211-8.093,20.143-18.388h3.05l0.807,2.421c0.257,0.77,0.974,1.258,1.744,1.258c0.193,0,0.388-0.03,0.582-0.095
	c0.963-0.321,1.484-1.363,1.162-2.326L57.183,22.5z M30.727,39.049c-9.125,0-16.549-7.423-16.549-16.549
	c0-9.125,7.424-16.549,16.549-16.549c8.504,0,15.529,6.448,16.446,14.711h-3.706C42.572,14.432,37.2,9.628,30.727,9.628
	c-7.097,0-12.872,5.774-12.872,12.872c0,7.098,5.774,12.872,12.872,12.872c6.473,0,11.845-4.804,12.74-11.033h3.706
	C46.256,32.602,39.231,39.049,30.727,39.049L30.727,39.049z M35.928,20.661c-0.76-2.14-2.803-3.678-5.2-3.678
	c-3.042,0-5.516,2.475-5.516,5.516c0,3.042,2.475,5.516,5.516,5.516c2.397,0,4.441-1.537,5.2-3.678h3.809
	c-0.854,4.192-4.569,7.355-9.009,7.355c-5.07,0-9.194-4.124-9.194-9.194c0-5.069,4.124-9.194,9.194-9.194
	c4.44,0,8.155,3.164,9.009,7.355H35.928z M35.928,20.661"/>
</svg>
