<?xml version="1.0" encoding="iso-8859-1"?>
<!-- Generator: Adobe Illustrator 21.0.0, SVG Export Plug-In . SVG Version: 6.00 Build 0)  -->
<svg version="1.2" baseProfile="tiny" id="&#x421;&#x43B;&#x43E;&#x439;_1"
	 xmlns="http://www.w3.org/2000/svg" xmlns:xlink="http://www.w3.org/1999/xlink" x="0px" y="0px" viewBox="0 0 62.5 45"
	 xml:space="preserve">
<g>
	<path fill="#9F2841" d="M50.18,36.898c-3.586-1.578-5.653-2.89-9.414-4.128c-0.278-0.09-0.614-0.27-0.727-0.489
		c-0.305-0.578-0.519-1.195-0.738-1.808c-0.137-0.391-0.258-0.758-0.758-0.946c-0.133-0.05-0.258-0.273-0.254-0.418
		c0.027-1.418-0.477-2.449,0.145-3.007c1.132-1.016,0.875-2.266,1.441-2.883c0.566-0.621,1.969-5.004,1.703-5.567
		c-0.269-0.562-1.219-0.3-0.996-0.574c0.871-1.074,1.141-3.246,1.094-5.027c0.156,0.324,0.242,0.676,0.242,1.058v0.368l5.547-3.606
		L32.281,0L17.098,9.867l1.375,0.895v1.996c-0.266,0.066-0.465,0.293-0.465,0.578c0,0.219,0.125,0.406,0.304,0.512l-1.214,6.918
		h3.039l-1.215-6.918c0.18-0.106,0.301-0.293,0.301-0.512c0-0.285-0.2-0.512-0.461-0.578v-1.809l3.886,2.528v-0.243
		c0.028,0.36,0.082,0.731,0.168,1.118c0.301,1.316,0.879,1.234,1.348,2.726c0.008,0.02,0,0.051,0,0.078v0.078
		c-0.035,0.172-0.172,0.364-0.285,0.395c-0.559,0.152-0.57,0.461-0.496,0.859c0.051,0.274,0.476,2.305,0.722,3.035
		c0.188,0.539,0.547,1.051,0.645,1.602c0.199,1.102,0.676,2.059,1.539,2.887c0.145,0.14,0.25,0.371,0.234,0.55
		c-0.066,0.848-0.168,1.696-0.3,2.536c-0.028,0.168-0.227,0.41-0.391,0.441c-0.656,0.117-0.758,0.551-0.914,0.988
		c-0.207,0.578-0.43,1.157-0.688,1.715c-0.082,0.176-0.285,0.36-0.484,0.434c-1.168,0.437-2.355,0.836-3.527,1.262
		c-1.25,0.453-4.559,2.48-5.785,3.046C13.711,37.32,14.113,40,14.113,40h36.278C50.391,40,50.898,37.219,50.18,36.898z"/>
</g>
</svg>
