<?xml version="1.0" encoding="iso-8859-1"?>
<!-- Generator: Adobe Illustrator 21.0.0, SVG Export Plug-In . SVG Version: 6.00 Build 0)  -->
<svg version="1.2" baseProfile="tiny" id="&#x421;&#x43B;&#x43E;&#x439;_1"
	 xmlns="http://www.w3.org/2000/svg" xmlns:xlink="http://www.w3.org/1999/xlink" x="0px" y="0px" viewBox="0 0 62.5 45"
	 xml:space="preserve">
<g>
	<path fill="#9F2841" d="M30.855,16.257v-3.735h2.472v3.735h2.977c0.937-1.041,1.45-2.375,1.45-3.784
		c0-3.123-2.54-5.663-5.663-5.663s-5.663,2.54-5.663,5.663c0,1.409,0.513,2.743,1.45,3.784H30.855z"/>
	<path fill="#9F2841" d="M21.544,18.73c-0.686,1.457-1.057,3.043-1.087,4.683l-2.957,8.503h2.955v6.032h5.461v4.779h13.528V32.406
		c2.588-2.196,4.059-5.361,4.059-8.78c0-1.715-0.374-3.376-1.09-4.897H21.544z"/>
	<rect x="20.726" y="11.237" fill="#9F2841" width="4.064" height="2.472"/>
	
		<rect x="24.255" y="3.842" transform="matrix(0.7071 -0.7071 0.7071 0.7071 3.3127 19.7458)" fill="#9F2841" width="2.472" height="4.064"/>
	
		<rect x="36.658" y="4.637" transform="matrix(0.7071 -0.7071 0.7071 0.7071 7.1787 29.0781)" fill="#9F2841" width="4.064" height="2.472"/>
	<rect x="39.392" y="11.237" fill="#9F2841" width="4.064" height="2.472"/>
	<rect x="30.854" y="1.109" fill="#9F2841" width="2.472" height="4.064"/>
</g>
</svg>
