<?xml version="1.0" encoding="iso-8859-1"?>
<!-- Generator: Adobe Illustrator 21.0.0, SVG Export Plug-In . SVG Version: 6.00 Build 0)  -->
<svg version="1.2" baseProfile="tiny" id="&#x421;&#x43B;&#x43E;&#x439;_1"
	 xmlns="http://www.w3.org/2000/svg" xmlns:xlink="http://www.w3.org/1999/xlink" x="0px" y="0px" viewBox="0 0 62.5 45"
	 xml:space="preserve">
<g>
	<g>
		<path fill="none" d="M29.701,11.125c-2.562,0.046-4.578,2.097-4.578,5.132c0,3.172,1.277,5.871,3.734,8.125
			C26.197,19.668,26.396,14.402,29.701,11.125z"/>
		<path fill="none" d="M19.916,38.804h28.652c-0.441-1.027-0.679-2.265-0.734-3.609H19.916c-0.293,0-0.531-0.234-0.531-0.527
			c0-0.293,0.238-0.528,0.531-0.528h27.918c0.055-1.34,0.293-2.582,0.734-3.609H19.916c-2.281,0-4.141,1.859-4.141,4.137
			C15.775,36.949,17.635,38.804,19.916,38.804z"/>
		<path fill="#9F2841" d="M22.764,15.671c0,5.426,4.175,13.668,9.82,11.18c5.945,2.574,9.824-5.754,9.824-11.18
			c0-5.238-4.031-8.312-9.266-6.003c0.809-1.348,2.473-3.778,4.594-5.02L35.08,3.41c-1.469,1.531-2.602,4.613-3.117,6.211
			C27.244,7.488,22.764,10.476,22.764,15.671z M29.701,11.125c-3.305,3.277-3.504,8.543-0.844,13.257
			c-2.457-2.254-3.734-4.953-3.734-8.125C25.123,13.222,27.139,11.171,29.701,11.125z"/>
		<path fill="#9F2841" d="M32.58,7.871c0,0,0.215-2.618-1.266-4.098c-1.48-1.48-4.093-1.262-4.093-1.262s-0.219,2.617,1.261,4.098
			C29.963,8.089,32.58,7.871,32.58,7.871z"/>
		<path fill="#9F2841" d="M19.916,42.003H52.42v-3.252c-0.522-0.256-1.438-1.661-1.438-4.083c0-2.422,0.916-3.827,1.438-4.084
			v-3.248H19.916c-4.043,0-7.336,3.289-7.336,7.332C12.58,38.711,15.873,42.003,19.916,42.003z M19.916,30.531h28.652
			c-0.441,1.027-0.679,2.269-0.734,3.609H19.916c-0.293,0-0.531,0.235-0.531,0.528c0,0.293,0.238,0.527,0.531,0.527h27.918
			c0.055,1.344,0.293,2.582,0.734,3.609H19.916c-2.281,0-4.141-1.855-4.141-4.136C15.775,32.39,17.635,30.531,19.916,30.531z"/>
	</g>
</g>
</svg>
